<?xml version="1.0" encoding="utf-8"?>
<!-- Generator: Adobe Illustrator 17.0.0, SVG Export Plug-In . SVG Version: 6.00 Build 0)  -->
<!DOCTYPE svg PUBLIC "-//W3C//DTD SVG 1.1//EN" "http://www.w3.org/Graphics/SVG/1.1/DTD/svg11.dtd">
<svg version="1.1" id="Capa_1" xmlns="http://www.w3.org/2000/svg" xmlns:xlink="http://www.w3.org/1999/xlink" x="0px" y="0px"
	 width="286.087px" height="243.478px" viewBox="0 0 286.087 243.478" enable-background="new 0 0 286.087 243.478"
	 xml:space="preserve">
<path fill="#00A09A" d="M281.822,166.697c0-0.03-0.024-0.052-0.031-0.082c-0.004-0.012-0.008-0.021-0.012-0.033
	c-0.002-0.011-0.002-0.018-0.006-0.026L233.319,54.119c0.038-0.122,0.032-0.257-0.033-0.375c-0.118-0.215-0.379-0.306-0.605-0.215
	l-39.506,15.992L102.426,6.045c-0.002-0.001-0.006-0.001-0.007-0.003c-0.019-0.011-0.036-0.019-0.058-0.027
	c-0.006-0.003-0.009-0.01-0.017-0.013c-0.007-0.003-0.015,0-0.022-0.003c-0.031-0.009-0.063-0.013-0.096-0.013
	c-0.015-0.002-0.025-0.002-0.041,0c-0.013,0.001-0.023,0-0.037,0.002h-0.011c-0.054,0.014-0.099,0.038-0.138,0.068
	c-0.004,0.003-0.008,0.003-0.01,0.005l-91.969,74.99c-0.045,0.036-0.076,0.082-0.1,0.133c-0.003,0.009-0.006,0.017-0.009,0.024
	c-0.005,0.015-0.008,0.027-0.011,0.042c-0.004,0.017-0.012,0.03-0.014,0.048c-0.004,0.044,0.002,0.087,0.014,0.128
	c0,0.003-0.002,0.006,0,0.01l32.543,108.947c0.008,0.026,0.025,0.045,0.037,0.069c0.01,0.017,0.016,0.032,0.025,0.047
	c0.007,0.009,0.012,0.016,0.02,0.024c0.012,0.012,0.029,0.021,0.041,0.03c0.022,0.02,0.042,0.039,0.066,0.051
	c0,0,0.003,0.003,0.004,0.004l99.517,46.221l0.001,0.001c0.014,0.005,0.026,0.003,0.039,0.008c0.008,0.004,0.012,0.012,0.021,0.013
	c0.029,0.008,0.061,0.012,0.092,0.012h0.006c0.172,0.009,0.297-0.088,0.35-0.223l19.107-23.303l35.14,10.777
	c0.018,0.003,0.036-0.005,0.053,0c0.019,0.001,0.034,0.015,0.055,0.015c0.011,0,0.024,0,0.036-0.002
	c0.013-0.001,0.021-0.012,0.033-0.015c0.039-0.008,0.072-0.027,0.108-0.047c0.028-0.02,0.056-0.031,0.079-0.056
	c0.008-0.009,0.021-0.01,0.027-0.018l18.776-23.81l65.479-33.138C281.709,167.008,281.822,166.864,281.822,166.697z
	 M280.254,164.858l-53.162-58.277l5.975-51.216l26.189,60.772L280.254,164.858z M280.852,166.591l-64.734,32.759l-0.125-0.723
	l10.665-91.446l18.274,20.033L280.852,166.591z M209.817,163.14l-7.973-45.824l11.998-24.184l8.734,9.573L209.817,163.14z
	 M200.137,76.851l-6.066-6.649l35.219-14.257L200.137,76.851z M174.192,171.418l-24.884-57.075l0.061-0.045l0.002-0.002
	l45.53-32.647l6.187,35.559l-18.713,37.717L174.192,171.418z M214.189,92.435l17.729-35.737l-9.459,44.805L214.189,92.435z
	 M213.664,91.859l-12.971-14.218l31.082-22.291L213.664,91.859z M195.417,80.384l-1.563-8.984l5.573,6.108L195.417,80.384z
	 M194.762,80.854l-42.186,30.254l40.432-40.344L194.762,80.854z M201.634,116.107l-6.079-34.93l4.463-3.2l13.301,14.578
	L201.634,116.107z M158.455,203.141l-15.98,32.208l-17.979-103.215l11.219-8.044L158.455,203.141z M179.371,162.614l21.927-44.2
	l2.368,13.601l5.58,32.074l-12.348,58.493l-22.117-50.722L179.371,162.614z M177.058,85.654l-27.778,27.717L103.065,7.377
	l89.619,62.686L177.058,85.654z M103.731,12.91l31.771,110.44l-11.142,7.99l-1.08-6.205L103.731,12.91z M141.723,235.255
	l-61.027-71.708l43.148-30.942L141.723,235.255z M158.752,204.175l2.492,8.662l-17.194,20.967L158.752,204.175z M101.967,7.014
	l7.675,44.065l14.063,80.731l-43.481,31.182L10.766,81.379l37.95-30.943L101.967,7.014z M35.42,111.468l44.212,51.948L54.85,181.188
	l-11.855,8.502l-9.667-32.363L11.09,82.88L35.42,111.468z M43.509,190.215l36.595-26.245l60.854,71.503l-35.555-16.513
	L43.509,190.215z"/>
</svg>
